<svg width="256" height="256" viewBox="0 0 256 256" fill="none" xmlns="http://www.w3.org/2000/svg">
  <path d="M126.59 28C115.95 42.54 107.74 64.43 109.57 86.15C111.07 104.01 117.88 119.41 128 130.24C138.12 119.41 144.93 104.01 146.43 86.15C148.26 64.43 140.05 42.54 129.41 28H126.59Z" fill="#F05053"/>
  <path d="M91.65 44.11C76.16 56.29 63.83 73.52 58.22 94.64C53.62 111.92 55.87 127.69 64.56 140.02C80.49 135.61 92.43 125.45 99.56 111.39C108.26 94.23 106.95 71.22 96.09 47.22L91.65 44.11Z" fill="#F05053"/>
  <path d="M164.35 44.11L159.91 47.22C149.05 71.22 147.74 94.23 156.44 111.39C163.57 125.45 175.51 135.61 191.44 140.02C200.13 127.69 202.38 111.92 197.78 94.64C192.17 73.52 179.84 56.29 164.35 44.11Z" fill="#F05053"/>
  <path d="M50.66 94.87C37.95 110.72 29.92 130.16 30 150.6C30.07 167.66 36.22 181.76 47.6 191.18C62.31 182.97 72.17 170.89 76.33 156.31C81.09 139.65 76.89 120.4 56.74 99.2L50.66 94.87Z" fill="#F05053"/>
  <path d="M205.34 94.87L199.26 99.2C179.11 120.4 174.91 139.65 179.67 156.31C183.83 170.89 193.69 182.97 208.4 191.18C219.78 181.76 225.93 167.66 226 150.6C226.08 130.16 218.05 110.72 205.34 94.87Z" fill="#F05053"/>
  <path d="M73.24 160.85C62.42 176.48 56.72 193.84 57.62 210.59C58.36 224.36 65 235.84 75.93 242.64C89.34 235.15 97.97 224.39 101.46 211.55C105.72 195.87 101.22 178.58 79.38 164.89L73.24 160.85Z" fill="#F05053"/>
  <path d="M182.76 160.85L176.62 164.89C154.78 178.58 150.28 195.87 154.54 211.55C158.03 224.39 166.66 235.15 180.07 242.64C191 235.84 197.64 224.36 198.38 210.59C199.28 193.84 193.58 176.48 182.76 160.85Z" fill="#F05053"/>
  <path d="M128 171.3C116.13 184.48 109.39 199.86 109.35 215.6C109.31 228.38 115.51 239.12 128 246.82C140.49 239.12 146.69 228.38 146.65 215.6C146.61 199.86 139.87 184.48 128 171.3Z" fill="#F05053"/>
  <path d="M126.59 28C115.95 42.54 107.74 64.43 109.57 86.15C111.07 104.01 117.88 119.41 128 130.24V28H126.59Z" fill="#F56E72"/>
  <path d="M91.65 44.11C76.16 56.29 63.83 73.52 58.22 94.64C53.62 111.92 55.87 127.69 64.56 140.02C80.49 135.61 92.43 125.45 99.56 111.39L91.65 44.11Z" fill="#F56E72"/>
  <path d="M50.66 94.87C37.95 110.72 29.92 130.16 30 150.6C30.07 167.66 36.22 181.76 47.6 191.18C62.31 182.97 72.17 170.89 76.33 156.31L50.66 94.87Z" fill="#F56E72"/>
  <path d="M73.24 160.85C62.42 176.48 56.72 193.84 57.62 210.59C58.36 224.36 65 235.84 75.93 242.64C89.34 235.15 97.97 224.39 101.46 211.55L73.24 160.85Z" fill="#F56E72"/>
  <path d="M182.76 160.85L154.54 211.55C158.03 224.39 166.66 235.15 180.07 242.64C191 235.84 197.64 224.36 198.38 210.59C199.28 193.84 193.58 176.48 182.76 160.85Z" fill="#E9474C"/>
  <path d="M205.34 94.87L179.67 156.31C183.83 170.89 193.69 182.97 208.4 191.18C219.78 181.76 225.93 167.66 226 150.6C226.08 130.16 218.05 110.72 205.34 94.87Z" fill="#E9474C"/>
  <path d="M164.35 44.11L156.44 111.39C163.57 125.45 175.51 135.61 191.44 140.02C200.13 127.69 202.38 111.92 197.78 94.64C192.17 73.52 179.84 56.29 164.35 44.11Z" fill="#E9474C"/>
  <path d="M129.41 28H128V130.24C138.12 119.41 144.93 104.01 146.43 86.15C148.26 64.43 140.05 42.54 129.41 28Z" fill="#E9474C"/>
</svg>
